<svg version="1.2" baseProfile="tiny-ps" xmlns="http://www.w3.org/2000/svg" viewBox="0 0 22 20" width="22" height="20">
	<title>Header</title>
	<style>
		tspan { white-space:pre }
		.s0 { fill: #29282d } 
	</style>
	<g id="Header">
		<g id="Menu_bar">
			<g id="menu_icon">
				<g id="Cart">
					<g id="Icon">
						<path id="cart_icon" class="s0" d="m17.44 20c-1.51 0-2.74-1.22-2.74-2.72c0-1.5 1.23-2.72 2.74-2.72c1.51 0 2.74 1.22 2.74 2.72c0 1.5-1.23 2.72-2.74 2.72zm0-3.81c-0.61 0-1.1 0.49-1.1 1.09c0 0.6 0.49 1.09 1.1 1.09c0.61 0 1.1-0.49 1.1-1.09c0-0.6-0.49-1.09-1.1-1.09zm1.76-2.81h-12.81c-0.38 0-0.71-0.26-0.8-0.63l-2.68-11.12h-2.07c-0.45 0-0.82-0.37-0.82-0.82c0-0.45 0.37-0.82 0.82-0.82h2.72c0.38 0 0.71 0.26 0.8 0.63l0.74 3.08h16.1c0.25 0 0.49 0.12 0.65 0.31c0.16 0.2 0.21 0.46 0.15 0.7l-2 8.04c-0.09 0.36-0.42 0.62-0.8 0.62zm-12.16-1.64h11.52l1.6-6.4h-14.65l1.54 6.4zm0.45 8.26c-1.51 0-2.74-1.22-2.74-2.72c0-1.5 1.23-2.72 2.74-2.72c1.51 0 2.74 1.22 2.74 2.72c0 1.5-1.23 2.72-2.74 2.72zm0-3.81c-0.61 0-1.1 0.49-1.1 1.09c0 0.6 0.49 1.09 1.1 1.09c0.61 0 1.1-0.49 1.1-1.09c0-0.6-0.49-1.09-1.1-1.09z" />
					</g>
				</g>
			</g>
		</g>
	</g>
</svg>