<svg version="1.2" baseProfile="tiny-ps" xmlns="http://www.w3.org/2000/svg" viewBox="0 0 20 20" width="20" height="20">
	<title>Header</title>
	<style>
		tspan { white-space:pre }
		.s0 { fill: #29282d } 
	</style>
	<g id="Header">
		<g id="Menu_bar">
			<g id="menu_icon">
				<g id="Heart">
					<g id="Icon">
						<path id="heart_icon" class="s0" d="m17.78 11.8c-1.11 1.36-2.81 3.35-4.22 4.97c-2.68 3.06-3.07 3.22-3.45 3.22h-0.04h-0.04c-0.04 0-0.04 0-0.09 0c-0.38 0-0.81-0.17-3.49-3.18c-1.41-1.57-3.11-3.57-4.22-4.97c-2.47-3.1-2.43-5.64-1.96-7.21c0.68-2.38 2.68-3.82 4.17-4.37c1.7-0.55 3.75 0 5.58 1.57c1.83-1.61 3.87-2.21 5.58-1.61c1.49 0.51 3.49 1.95 4.17 4.37c0.47 1.57 0.47 4.12-2 7.21zm-1.28-1.02c-1.96 2.46-5.32 6.32-6.47 7.39c-1.15-1.06-4.51-4.92-6.47-7.39c-1.62-1.99-2.21-3.95-1.7-5.69c0.51-1.78 2-2.84 3.11-3.22c1.23-0.47 2.9 0.17 4.43 1.66c0.3 0.3 0.72 0.34 1.06 0.13c0.09-0.04 0.17-0.08 0.21-0.17c1.53-1.44 3.19-2.08 4.43-1.66c1.11 0.42 2.6 1.49 3.11 3.27c0.51 1.7-0.09 3.69-1.7 5.69z" />
					</g>
				</g>
			</g>
		</g>
	</g>
</svg>