<svg version="1.2" baseProfile="tiny-ps" xmlns="http://www.w3.org/2000/svg" viewBox="0 0 20 20" width="20" height="20">
	<title>Header</title>
	<style>
		tspan { white-space:pre }
		.s0 { fill: #29282d } 
	</style>
	<g id="Header">
		<g id="Menu_bar">
			<g id="menu_icon">
				<g id="Search">
					<path id="search" class="s0" d="m19.89 19.29l-0.59 0.59c-0.16 0.16-0.43 0.16-0.59 0l-5.81-5.81c-1.36 1.1-3.09 1.76-4.97 1.76c-4.37 0-7.92-3.55-7.92-7.92c0-4.37 3.55-7.92 7.92-7.92c4.37 0 7.92 3.55 7.92 7.92c0 1.88-0.66 3.61-1.77 4.97l5.81 5.81c0.16 0.16 0.16 0.43 0 0.59zm-11.96-5.12c-3.45 0-6.25-2.8-6.25-6.25c0-3.45 2.8-6.25 6.25-6.25c3.45 0 6.25 2.8 6.25 6.25c0 3.45-2.8 6.25-6.25 6.25z" />
				</g>
			</g>
		</g>
	</g>
</svg>