<svg version="1.2" baseProfile="tiny-ps" xmlns="http://www.w3.org/2000/svg" viewBox="0 0 20 20" width="20" height="20">
	<title>Header</title>
	<style>
		tspan { white-space:pre }
		.s0 { fill: #29282d } 
	</style>
	<g id="Header">
		<g id="Menu_bar">
			<g id="menu_icon">
				<g id="user">
					<path id="user" class="s0" d="m20 20h-1.56c0-4.65-3.79-8.44-8.44-8.44c-4.65 0-8.44 3.78-8.44 8.44h-1.56c0-2.67 1.04-5.18 2.93-7.07c1.09-1.09 2.39-1.9 3.8-2.38c-1.51-1.04-2.51-2.79-2.51-4.76c0-3.19 2.59-5.78 5.78-5.78c3.19 0 5.78 2.59 5.78 5.78c0 1.97-1 3.72-2.51 4.76c1.41 0.49 2.71 1.29 3.8 2.38c1.89 1.89 2.93 4.4 2.93 7.07zm-14.22-14.22c0-2.33 1.89-4.22 4.22-4.22c2.33 0 4.22 1.89 4.22 4.22c0 2.33-1.89 4.22-4.22 4.22c-2.33 0-4.22-1.89-4.22-4.22z" />
				</g>
			</g>
		</g>
	</g>
</svg>